<?xml version="1.0" encoding="UTF-8" standalone="no"?>
<!-- Created with Inkscape (http://www.inkscape.org/) -->

<svg
   xmlns:dc="http://purl.org/dc/elements/1.1/"
   xmlns:cc="http://creativecommons.org/ns#"
   xmlns:rdf="http://www.w3.org/1999/02/22-rdf-syntax-ns#"
   xmlns:svg="http://www.w3.org/2000/svg"
   xmlns="http://www.w3.org/2000/svg"
   version="1.1"
   width="177.16536"
   height="177.1875"
   id="svg2">
  <defs
     id="defs4" />
  <metadata
     id="metadata7">
    <rdf:RDF>
      <cc:Work
         rdf:about="">
        <dc:format>image/svg+xml</dc:format>
        <dc:type
           rdf:resource="http://purl.org/dc/dcmitype/StillImage" />
        <dc:title></dc:title>
      </cc:Work>
    </rdf:RDF>
  </metadata>
  <g
     transform="translate(7.3473183e-7,-875.1875)"
     id="layer1">
    <path
       d="M 35.4375,875.1875 C 15.807579,875.1875 0,890.99508 0,910.625 l 0,97.4375 c 0,4.8923 3.9514639,8.875 8.84375,8.875 4.892286,0 8.875,-3.9827 8.875,-8.875 l 0.0625,0 c -0.03482,-0.5779 -0.0625,-1.163 -0.0625,-1.75 l 0,-85.0625 c 0,-15.70394 12.639813,-28.34375 28.34375,-28.34375 l 85.03125,0 c 0.59755,0 1.1931,0.0264 1.78125,0.0625 l 0,-0.0625 c 4.89229,0 8.84375,-3.95146 8.84375,-8.84375 0,-4.89229 -3.95146,-8.875 -8.84375,-8.875 l -97.4375,0 z m 132.875,35.4375 c -4.89229,0 -8.875,3.98271 -8.875,8.875 l -0.0625,0 c 0.0348,0.5779 0.0625,1.16304 0.0625,1.75 l 0,85.0625 c 0,15.7039 -12.63981,28.3437 -28.34375,28.3437 l -85.03125,0 c -0.597552,0 -1.193098,-0.027 -1.78125,-0.062 l 0,0.062 c -4.892286,0 -8.84375,3.9515 -8.84375,8.8438 0,4.8923 3.951464,8.875 8.84375,8.875 l 97.4375,0 c 19.62992,0 35.4375,-15.8076 35.4375,-35.4375 l 0,-97.4375 c 0,-4.89229 -3.95146,-8.875 -8.84375,-8.875 z"
       id="rect2985"
       style="fill:#000000;fill-opacity:1;stroke:none" />
    <path
       d="m 149.88557,905.84827 a 20.842983,20.229954 0 1 1 -41.68597,0 20.842983,20.229954 0 1 1 41.68597,0 z"
       transform="matrix(0.84999998,0,0,0.87575758,49.762622,99.609878)"
       id="path3776"
       style="fill:#000000;fill-opacity:1;stroke:none" />
    <path
       d="m 149.88557,905.84827 a 20.842983,20.229954 0 1 1 -41.68597,0 20.842983,20.229954 0 1 1 41.68597,0 z"
       transform="matrix(0.84999998,0,0,0.87575758,-91.969662,241.34216)"
       id="path3789"
       style="fill:#000000;fill-opacity:1;stroke:none" />
    <path
       d="m 88.59375,928.34375 c -19.569145,0 -35.4375,15.86835 -35.4375,35.4375 0,19.56915 15.868355,35.4375 35.4375,35.4375 19.56915,0 35.4375,-15.86835 35.4375,-35.4375 0,-19.56915 -15.86835,-35.4375 -35.4375,-35.4375 z m 0,17.71875 c 9.784572,0 17.71875,7.93418 17.71875,17.71875 0,9.78457 -7.934178,17.71875 -17.71875,17.71875 -9.784572,0 -17.71875,-7.93418 -17.71875,-17.71875 0,-9.78457 7.934178,-17.71875 17.71875,-17.71875 z"
       id="path3795"
       style="fill:#000000;fill-opacity:1;stroke:none" />
  </g>
</svg>
